<svg xmlns="http://www.w3.org/2000/svg" width="14" height="14" viewBox="0 0 14 14" fill="none">
  <path d="M7.11405 4.66635L7.43804 5.42418C7.46001 5.49007 7.52042 5.52851 7.58082 5.534L8.40454 5.61089C8.58027 5.62736 8.64616 5.84153 8.51986 5.95685L7.89933 6.5005C7.8499 6.54443 7.82794 6.61033 7.84441 6.67074L8.02563 7.47798C8.06407 7.64822 7.88285 7.78001 7.72909 7.69215L7.02069 7.26931C6.96578 7.23636 6.89439 7.23636 6.83947 7.26931L6.13107 7.69215C5.98281 7.78001 5.7961 7.64822 5.83454 7.47798L6.01575 6.67074C6.03223 6.61033 6.01026 6.54443 5.96084 6.5005L5.3403 5.95685C5.20851 5.84153 5.2799 5.62736 5.45562 5.61089L6.27934 5.534C6.34524 5.52851 6.40016 5.49007 6.42761 5.42967L6.75161 4.67185C6.81751 4.5071 7.04266 4.5071 7.11405 4.66635Z" stroke="#F0C932" stroke-width="0.549146" stroke-miterlimit="10" stroke-linecap="round" stroke-linejoin="round"/>
  <path d="M10.6655 6.27242C10.6797 4.21008 9.01932 2.52672 6.95698 2.51252C4.89464 2.49833 3.21128 4.15868 3.19709 6.22102C3.18289 8.28336 4.84324 9.96672 6.90558 9.98091C8.96792 9.99511 10.6513 8.33476 10.6655 6.27242Z" stroke="#F0C932" stroke-width="0.549146" stroke-miterlimit="10" stroke-linecap="round" stroke-linejoin="round"/>
  <path d="M6.42202 9.94364L5.49396 12.2775L4.31879 10.9321L2.54504 11.0969L3.72022 8.15343" stroke="#F0C932" stroke-width="0.549146" stroke-miterlimit="10" stroke-linecap="round" stroke-linejoin="round"/>
  <path d="M7.4325 9.94366L8.36604 12.2775L9.53573 10.9321L11.315 11.0969L10.1343 8.15344" stroke="#F0C932" stroke-width="0.549146" stroke-miterlimit="10" stroke-linecap="round" stroke-linejoin="round"/>
</svg>